<?xml version="1.0" encoding="UTF-8"?>
<!-- Generator: Adobe Illustrator 19.1.0, SVG Export Plug-In . SVG Version: 6.00 Build 0)  -->
<svg xmlns="http://www.w3.org/2000/svg" xmlns:xlink="http://www.w3.org/1999/xlink" xmlns:dc="http://purl.org/dc/elements/1.1/" xmlns:cc="http://creativecommons.org/ns#" xmlns:rdf="http://www.w3.org/1999/02/22-rdf-syntax-ns#" version="1.1" id="DESIGNS" x="0px" y="0px" width="32px" height="32px" viewBox="0 0 32 32" style="enable-background:new 0 0 32 32;" xml:space="preserve">
<title property="dc:title">to forebode</title><desc property="dc:description">An icon for "forebode" from the Puchi Puchi series on to [icon]. Downloaded from http://www.toicon.com/icons/puchi-puchi_forebode by 183.207.179.46 on 2017-05-14. Licensed CC-BY, see http://toicon.com/license/ for details.</desc>
<path class="puchipuchi_een" d="M16,13v-1.584c0-0.931-0.217-1.85-0.633-2.683l-1.919-3.839c-0.184-0.369-0.71-0.369-0.894,0L11,8H7  L5.447,4.894c-0.184-0.369-0.71-0.369-0.894,0L2.633,8.733C2.217,9.566,2,10.485,2,11.416V13c0,3.314,2.686,6,6,6h2  C13.314,19,16,16.314,16,13z M12,12c0.552,0,1,0.448,1,1c0,0.552-0.448,1-1,1s-1-0.448-1-1C11,12.448,11.448,12,12,12z M6,14  c-0.552,0-1-0.448-1-1c0-0.552,0.448-1,1-1s1,0.448,1,1C7,13.552,6.552,14,6,14z M26.586,15.828C26.208,16.207,26,16.709,26,17.243  V31c0,0.552-0.448,1-1,1s-1-0.448-1-1v-4.5c0-0.276-0.224-0.5-0.5-0.5S23,26.224,23,26.5V31c0,0.552-0.448,1-1,1s-1-0.448-1-1v-4.5  c0-0.276-0.224-0.5-0.5-0.5h-6c-0.276,0-0.5,0.224-0.5,0.5V31c0,0.552-0.448,1-1,1s-1-0.448-1-1v-4.5c0-0.276-0.224-0.5-0.5-0.5  S11,26.224,11,26.5v4.471C11,31.539,10.539,32,9.971,32c-0.545,0-0.996-0.425-1.027-0.969l-0.64-11.054L10,20  c2.08,0,3.949-0.914,5.232-2.36C15.6,17.225,16.136,17,16.69,17h7.333c0.059-0.975,0.451-1.888,1.148-2.586  c0.779-0.78,0.779-2.048,0-2.828l-1.758-1.758c-1.559-1.56-1.559-4.097,0-5.656l0.465-0.465C24.602,2.984,25,2.022,25,1  c0-0.552,0.447-1,1-1s1,0.448,1,1c0,1.557-0.606,3.021-1.707,4.121l-0.465,0.465c-0.779,0.78-0.779,2.048,0,2.828l1.758,1.758  C28.145,11.731,28.145,14.269,26.586,15.828z" style="fill: #111918;"/>
<metadata><work rdf:about=""><format>image/svg+xml</format><type rdf:resource="http://purl.org/dc/dcmitype/StillImage"/><license rdf:resource="http://creativecommons.org/licenses/by/4.0/"/><attributionname>Shannon E Thomas</attributionname><attributionurl>http://www.toicon.com/icons/puchi-puchi_forebode</attributionurl></work></metadata></svg>
